<?xml version="1.0" encoding="UTF-8"?>
<svg version="1.1" xmlns="http://www.w3.org/2000/svg" width="50" height="50">
<path d="M0 0 C0.495 3.96 0.495 3.96 1 8 C-9.23 11.3 -19.46 14.6 -30 18 C-13.665 18.495 -13.665 18.495 3 19 C3 29.23 3 39.46 3 50 C-12.84 50 -28.68 50 -45 50 C-45.4375 36.5625 -45.4375 36.5625 -45.56811523 32.31860352 C-45.60622314 31.22475342 -45.64433105 30.13090332 -45.68359375 29.00390625 C-45.72025146 27.87799072 -45.75690918 26.7520752 -45.79467773 25.59204102 C-45.71218045 23.07146559 -45.71218045 23.07146559 -47 22 C-47.07179964 20.48071962 -47.08392007 18.95832518 -47.0625 17.4375 C-47.05347656 16.61121094 -47.04445312 15.78492188 -47.03515625 14.93359375 C-47.02355469 14.29550781 -47.01195312 13.65742188 -47 13 C-24.01119435 5.2112684 -24.01119435 5.2112684 -13.375 2 C-12.70863525 1.79286377 -12.04227051 1.58572754 -11.35571289 1.37231445 C-7.47007946 0.22429777 -4.04536039 -0.1991562 0 0 Z M-18 8 C-17.67 8.66 -17.34 9.32 -17 10 C-16.34 9.67 -15.68 9.34 -15 9 C-15.99 8.67 -16.98 8.34 -18 8 Z M-44 18 C-44 18.66 -44 19.32 -44 20 C-43.34 20 -42.68 20 -42 20 C-42 19.34 -42 18.68 -42 18 C-42.66 18 -43.32 18 -44 18 Z M-43 27 C-43 33.93 -43 40.86 -43 48 C-28.48 48 -13.96 48 1 48 C1 41.07 1 34.14 1 27 C-13.52 27 -28.04 27 -43 27 Z " fill="#000000" transform="translate(47,0)"/>
</svg>
